<svg width="863" height="582" viewBox="0 0 863 582" fill="none" xmlns="http://www.w3.org/2000/svg">
<path fill-rule="evenodd" clip-rule="evenodd" d="M742.074 251.591C744.099 239.666 745.155 227.404 745.155 214.892C745.155 96.2106 650.212 0 533.095 0C445.614 0 370.505 53.6792 338.095 130.307C316.017 119.483 291.245 113.415 265.075 113.415C180.298 113.415 110.198 177.094 98.8122 259.826C40.5217 286.374 0 345.139 0 413.369C0 506.502 75.4988 582 168.631 582H694.335C787.467 582 862.966 506.502 862.966 413.369C862.966 336.818 811.957 272.181 742.074 251.591Z" fill="url(#paint0_linear_13_278)" fill-opacity="0.4"/>
<defs>
<linearGradient id="paint0_linear_13_278" x1="533.096" y1="0" x2="533.096" y2="429.785" gradientUnits="userSpaceOnUse">
<stop stop-color="#00FFC2"/>
<stop offset="1" stop-color="#00FF66"/>
</linearGradient>
</defs>
</svg>
