<svg width="1920" height="364" viewBox="0 0 1920 364" fill="none" xmlns="http://www.w3.org/2000/svg">
<path d="M54.5 88.5C-21.5 87 -42.5 68.5 -79.5 54.5L-161 85.5L-214 258.5L295 291L1600 235L1950 191.5C1964 127.667 1969 0 1877 0C1762 0 1743 101 1618.5 101C1494 101 1481.5 28 1327.5 31C1173.5 34 1137.5 101 1031.5 101C925.5 101 941.5 60.5 787 60.5C632.5 60.5 642.5 101 533.5 101C424.5 101 399.5 43.5 295 39C190.5 34.5 130.5 90 54.5 88.5Z" fill="#17C1B7"/>
<rect x="1740" y="130" width="19" height="55" fill="#88CFB1"/>
<rect x="1677" y="130" width="64" height="55" fill="#A4EAB3"/>
<path d="M1727.2 101L1759 130H1695L1709.5 101H1727.2Z" fill="#A4EAB3"/>
<path d="M1709.2 101L1741 130H1677L1709.2 101Z" fill="white"/>
<rect x="1636" y="117" width="19" height="55" fill="#88CFB1"/>
<rect x="1573" y="117" width="64" height="55" fill="#A4EAB3"/>
<path d="M1623.2 88L1655 117H1591L1605.5 88H1623.2Z" fill="#A4EAB3"/>
<path d="M1605.2 88L1637 117H1573L1605.2 88Z" fill="white"/>
<rect x="1532" y="93" width="19" height="55" fill="#88CFB1"/>
<rect x="1469" y="93" width="64" height="55" fill="#A4EAB3"/>
<path d="M1519.2 64L1551 93H1487L1501.5 64H1519.2Z" fill="#A4EAB3"/>
<path d="M1501.2 64L1533 93H1469L1501.2 64Z" fill="white"/>
<rect x="1428" y="75" width="19" height="55" fill="#88CFB1"/>
<rect x="1365" y="75" width="64" height="55" fill="#A4EAB3"/>
<path d="M1415.2 46L1447 75H1383L1397.5 46H1415.2Z" fill="#A4EAB3"/>
<path d="M1397.2 46L1429 75H1365L1397.2 46Z" fill="white"/>
<rect x="1324" y="78" width="19" height="55" fill="#88CFB1"/>
<rect x="1261" y="78" width="64" height="55" fill="#A4EAB3"/>
<path d="M1311.2 49L1343 78H1279L1293.5 49H1311.2Z" fill="#A4EAB3"/>
<path d="M1293.2 49L1325 78H1261L1293.2 49Z" fill="white"/>
<rect x="1220" y="122" width="19" height="55" fill="#88CFB1"/>
<rect x="1157" y="122" width="64" height="55" fill="#A4EAB3"/>
<path d="M1207.2 93L1239 122H1175L1189.5 93H1207.2Z" fill="#A4EAB3"/>
<path d="M1189.2 93L1221 122H1157L1189.2 93Z" fill="white"/>
<rect x="1116" y="159" width="19" height="55" fill="#88CFB1"/>
<rect x="1053" y="159" width="64" height="55" fill="#A4EAB3"/>
<path d="M1103.2 130L1135 159H1071L1085.5 130H1103.2Z" fill="#A4EAB3"/>
<path d="M1085.2 130L1117 159H1053L1085.2 130Z" fill="white"/>
<path d="M114.5 161.5C38.5 160 17.5 141.5 -19.5 127.5L-101 158.5L-154 331.5L355 364L1660 308L2010 264.5C2024 200.667 2029 73 1937 73C1822 73 1803 174 1678.5 174C1554 174 1541.5 101 1387.5 104C1233.5 107 1197.5 174 1091.5 174C985.5 174 1001.5 133.5 847 133.5C692.5 133.5 702.5 174 593.5 174C484.5 174 459.5 116.5 355 112C250.5 107.5 190.5 163 114.5 161.5Z" fill="#14F9C2"/>
</svg>
